<svg width="41" height="38" viewBox="0 0 41 38" fill="none" xmlns="http://www.w3.org/2000/svg">
<path fill-rule="evenodd" clip-rule="evenodd" d="M4.02222 9.50008C4.02222 7.82038 4.7246 6.20947 5.97484 5.02174C7.22508 3.83401 8.92077 3.16675 10.6889 3.16675H30.6889C32.457 3.16675 34.1527 3.83401 35.4029 5.02174C36.6532 6.20947 37.3556 7.82038 37.3556 9.50008V28.5001C37.3556 30.1798 36.6532 31.7907 35.4029 32.9784C34.1527 34.1662 32.457 34.8334 30.6889 34.8334H10.6889C8.92077 34.8334 7.22508 34.1662 5.97484 32.9784C4.7246 31.7907 4.02222 30.1798 4.02222 28.5001V9.50008ZM10.6889 6.33342C9.80483 6.33342 8.95698 6.66704 8.33186 7.26091C7.70674 7.85478 7.35555 8.66023 7.35555 9.50008V28.5001C7.35555 29.3399 7.70674 30.1454 8.33186 30.7393C8.95698 31.3331 9.80483 31.6668 10.6889 31.6668H20.6889V20.5834H19.0222C18.5802 20.5834 18.1563 20.4166 17.8437 20.1197C17.5311 19.8227 17.3556 19.42 17.3556 19.0001C17.3556 18.5802 17.5311 18.1774 17.8437 17.8805C18.1563 17.5836 18.5802 17.4167 19.0222 17.4167H20.6889V15.0417C20.6889 13.572 21.3035 12.1625 22.3974 11.1232C23.4914 10.0839 24.9751 9.50008 26.5222 9.50008H27.5222C27.9642 9.50008 28.3882 9.6669 28.7007 9.96383C29.0133 10.2608 29.1889 10.6635 29.1889 11.0834C29.1889 11.5033 29.0133 11.9061 28.7007 12.203C28.3882 12.4999 27.9642 12.6667 27.5222 12.6667H26.5222C26.1939 12.6667 25.8688 12.7282 25.5655 12.8475C25.2622 12.9669 24.9866 13.1418 24.7544 13.3624C24.5223 13.5829 24.3382 13.8447 24.2125 14.1329C24.0869 14.421 24.0222 14.7299 24.0222 15.0417V17.4167H27.5222C27.9642 17.4167 28.3882 17.5836 28.7007 17.8805C29.0133 18.1774 29.1889 18.5802 29.1889 19.0001C29.1889 19.42 29.0133 19.8227 28.7007 20.1197C28.3882 20.4166 27.9642 20.5834 27.5222 20.5834H24.0222V31.6668H30.6889C31.5729 31.6668 32.4208 31.3331 33.0459 30.7393C33.671 30.1454 34.0222 29.3399 34.0222 28.5001V9.50008C34.0222 8.66023 33.671 7.85478 33.0459 7.26091C32.4208 6.66704 31.5729 6.33342 30.6889 6.33342H10.6889Z" fill="#F0F0F0"/>
</svg>
