<svg width="141" height="30" viewBox="0 0 141 30" fill="none" xmlns="http://www.w3.org/2000/svg">
<path d="M6.28 3.548V29H0.124V3.548H6.28ZM18.1623 8.66C19.6983 8.66 21.0183 9.008 22.1223 9.704C23.2263 10.4 24.0303 11.348 24.5343 12.548V2.36H30.6903V29H24.5343V25.364C24.0303 26.564 23.2263 27.512 22.1223 28.208C21.0183 28.904 19.6983 29.252 18.1623 29.252C16.5063 29.252 15.0183 28.844 13.6982 28.028C12.4023 27.188 11.3703 25.988 10.6023 24.428C9.85825 22.868 9.48625 21.044 9.48625 18.956C9.48625 16.844 9.85825 15.02 10.6023 13.484C11.3703 11.924 12.4023 10.736 13.6982 9.92C15.0183 9.08 16.5063 8.66 18.1623 8.66ZM20.1423 14.06C18.8223 14.06 17.7543 14.492 16.9383 15.356C16.1463 16.22 15.7503 17.42 15.7503 18.956C15.7503 20.492 16.1463 21.692 16.9383 22.556C17.7543 23.42 18.8223 23.852 20.1423 23.852C21.4383 23.852 22.4943 23.408 23.3103 22.52C24.1503 21.632 24.5703 20.444 24.5703 18.956C24.5703 17.444 24.1503 16.256 23.3103 15.392C22.4943 14.504 21.4383 14.06 20.1423 14.06ZM54.0087 18.416C54.0087 18.92 53.9487 19.472 53.8287 20.072H39.8967C39.9687 21.584 40.3527 22.676 41.0487 23.348C41.7447 23.996 42.6327 24.32 43.7127 24.32C44.6247 24.32 45.3807 24.092 45.9807 23.636C46.5807 23.18 46.9767 22.592 47.1687 21.872H53.6847C53.4207 23.288 52.8447 24.56 51.9567 25.688C51.0687 26.792 49.9407 27.668 48.5727 28.316C47.2047 28.94 45.6807 29.252 44.0007 29.252C42.0327 29.252 40.2807 28.844 38.7447 28.028C37.2327 27.188 36.0447 25.988 35.1807 24.428C34.3167 22.868 33.8847 21.044 33.8847 18.956C33.8847 16.844 34.3047 15.02 35.1447 13.484C36.0087 11.924 37.2087 10.736 38.7447 9.92C40.2807 9.08 42.0327 8.66 44.0007 8.66C45.9927 8.66 47.7447 9.068 49.2567 9.884C50.7687 10.7 51.9327 11.852 52.7487 13.34C53.5887 14.804 54.0087 16.496 54.0087 18.416ZM47.7807 17.48C47.8047 16.16 47.4447 15.176 46.7007 14.528C45.9807 13.856 45.0807 13.52 44.0007 13.52C42.8727 13.52 41.9367 13.856 41.1927 14.528C40.4487 15.2 40.0287 16.184 39.9327 17.48H47.7807ZM64.8498 8.66C66.3858 8.66 67.7058 9.008 68.8098 9.704C69.9138 10.4 70.7298 11.348 71.2578 12.548V8.912H77.3778V29H71.2578V25.364C70.7298 26.564 69.9138 27.512 68.8098 28.208C67.7058 28.904 66.3858 29.252 64.8498 29.252C63.1938 29.252 61.7058 28.844 60.3857 28.028C59.0898 27.188 58.0578 25.988 57.2898 24.428C56.5458 22.868 56.1738 21.044 56.1738 18.956C56.1738 16.844 56.5458 15.02 57.2898 13.484C58.0578 11.924 59.0898 10.736 60.3857 9.92C61.7058 9.08 63.1938 8.66 64.8498 8.66ZM66.8298 14.06C65.5098 14.06 64.4418 14.492 63.6258 15.356C62.8338 16.22 62.4378 17.42 62.4378 18.956C62.4378 20.492 62.8338 21.692 63.6258 22.556C64.4418 23.42 65.5098 23.852 66.8298 23.852C68.1258 23.852 69.1818 23.408 69.9978 22.52C70.8378 21.632 71.2578 20.444 71.2578 18.956C71.2578 17.444 70.8378 16.256 69.9978 15.392C69.1818 14.504 68.1258 14.06 66.8298 14.06ZM88.9242 8.66C91.4682 8.66 93.4962 9.296 95.0082 10.568C96.5442 11.84 97.5042 13.52 97.8882 15.608H92.1282C91.9602 14.792 91.5762 14.156 90.9762 13.7C90.4002 13.22 89.6682 12.98 88.7802 12.98C88.0842 12.98 87.5562 13.136 87.1962 13.448C86.8362 13.736 86.6562 14.156 86.6562 14.708C86.6562 15.332 86.9802 15.8 87.6282 16.112C88.3002 16.424 89.3442 16.736 90.7602 17.048C92.2962 17.408 93.5562 17.78 94.5402 18.164C95.5242 18.524 96.3762 19.124 97.0962 19.964C97.8162 20.804 98.1762 21.932 98.1762 23.348C98.1762 24.5 97.8642 25.52 97.2402 26.408C96.6162 27.296 95.7162 27.992 94.5402 28.496C93.3642 29 91.9722 29.252 90.3642 29.252C87.6522 29.252 85.4802 28.652 83.8482 27.452C82.2162 26.252 81.2202 24.536 80.8602 22.304H86.8002C86.8962 23.168 87.2562 23.828 87.8802 24.284C88.5282 24.74 89.3562 24.968 90.3642 24.968C91.0602 24.968 91.5882 24.812 91.9482 24.5C92.3082 24.164 92.4882 23.732 92.4882 23.204C92.4882 22.508 92.1522 22.016 91.4802 21.728C90.8322 21.416 89.7642 21.092 88.2762 20.756C86.7882 20.444 85.5642 20.108 84.6042 19.748C83.6442 19.388 82.8162 18.812 82.1202 18.02C81.4242 17.204 81.0762 16.1 81.0762 14.708C81.0762 12.908 81.7602 11.456 83.1282 10.352C84.4962 9.224 86.4282 8.66 88.9242 8.66ZM109.517 3.26C109.517 2.324 109.853 1.556 110.525 0.955998C111.197 0.331998 112.085 0.0199976 113.189 0.0199976C114.293 0.0199976 115.181 0.331998 115.853 0.955998C116.525 1.556 116.861 2.324 116.861 3.26C116.861 4.172 116.525 4.94 115.853 5.564C115.181 6.164 114.293 6.464 113.189 6.464C112.085 6.464 111.197 6.164 110.525 5.564C109.853 4.94 109.517 4.172 109.517 3.26ZM116.249 8.912V29H110.093V8.912H116.249ZM129.895 8.66C131.887 8.66 133.663 9.08 135.223 9.92C136.807 10.736 138.043 11.924 138.931 13.484C139.843 15.044 140.299 16.868 140.299 18.956C140.299 21.044 139.843 22.868 138.931 24.428C138.043 25.988 136.807 27.188 135.223 28.028C133.663 28.844 131.887 29.252 129.895 29.252C127.903 29.252 126.115 28.844 124.531 28.028C122.947 27.188 121.699 25.988 120.787 24.428C119.899 22.868 119.455 21.044 119.455 18.956C119.455 16.868 119.899 15.044 120.787 13.484C121.699 11.924 122.947 10.736 124.531 9.92C126.115 9.08 127.903 8.66 129.895 8.66ZM129.895 13.988C128.719 13.988 127.723 14.42 126.907 15.284C126.115 16.124 125.719 17.348 125.719 18.956C125.719 20.564 126.115 21.788 126.907 22.628C127.723 23.468 128.719 23.888 129.895 23.888C131.071 23.888 132.055 23.468 132.847 22.628C133.639 21.788 134.035 20.564 134.035 18.956C134.035 17.348 133.639 16.124 132.847 15.284C132.055 14.42 131.071 13.988 129.895 13.988Z" fill="#333333"/>
<path d="M106.877 22.844V29H100.505V22.844H106.877Z" fill="#DD8BA7"/>
</svg>
