<svg width="41" height="40" viewBox="0 0 41 40" fill="none" xmlns="http://www.w3.org/2000/svg">
<path fill-rule="evenodd" clip-rule="evenodd" d="M4.02222 9.99992C4.02222 8.23181 4.7246 6.53612 5.97484 5.28587C7.22508 4.03563 8.92077 3.33325 10.6889 3.33325H30.6889C32.457 3.33325 34.1527 4.03563 35.4029 5.28587C36.6532 6.53612 37.3556 8.23181 37.3556 9.99992V29.9999C37.3556 31.768 36.6532 33.4637 35.4029 34.714C34.1527 35.9642 32.457 36.6666 30.6889 36.6666H10.6889C8.92077 36.6666 7.22508 35.9642 5.97484 34.714C4.7246 33.4637 4.02222 31.768 4.02222 29.9999V9.99992ZM10.6889 6.66659C9.80483 6.66659 8.95698 7.01777 8.33186 7.6429C7.70674 8.26802 7.35555 9.11586 7.35555 9.99992V29.9999C7.35555 30.884 7.70674 31.7318 8.33186 32.3569C8.95698 32.9821 9.80483 33.3333 10.6889 33.3333H30.6889C31.5729 33.3333 32.4208 32.9821 33.0459 32.3569C33.671 31.7318 34.0222 30.884 34.0222 29.9999V9.99992C34.0222 9.11586 33.671 8.26802 33.0459 7.6429C32.4208 7.01777 31.5729 6.66659 30.6889 6.66659H10.6889ZM20.6889 14.9999C19.3628 14.9999 18.091 15.5267 17.1533 16.4644C16.2157 17.4021 15.6889 18.6738 15.6889 19.9999C15.6889 21.326 16.2157 22.5978 17.1533 23.5355C18.091 24.4731 19.3628 24.9999 20.6889 24.9999C22.015 24.9999 23.2867 24.4731 24.2244 23.5355C25.1621 22.5978 25.6889 21.326 25.6889 19.9999C25.6889 18.6738 25.1621 17.4021 24.2244 16.4644C23.2867 15.5267 22.015 14.9999 20.6889 14.9999ZM12.3556 19.9999C12.3556 17.7898 13.2335 15.6702 14.7963 14.1074C16.3591 12.5446 18.4787 11.6666 20.6889 11.6666C22.899 11.6666 25.0186 12.5446 26.5814 14.1074C28.1442 15.6702 29.0222 17.7898 29.0222 19.9999C29.0222 22.2101 28.1442 24.3297 26.5814 25.8925C25.0186 27.4553 22.899 28.3333 20.6889 28.3333C18.4787 28.3333 16.3591 27.4553 14.7963 25.8925C13.2335 24.3297 12.3556 22.2101 12.3556 19.9999ZM29.8556 13.3333C30.5186 13.3333 31.1545 13.0699 31.6233 12.601C32.0922 12.1322 32.3556 11.4963 32.3556 10.8333C32.3556 10.1702 32.0922 9.53433 31.6233 9.06549C31.1545 8.59664 30.5186 8.33325 29.8556 8.33325C29.1925 8.33325 28.5566 8.59664 28.0878 9.06549C27.6189 9.53433 27.3556 10.1702 27.3556 10.8333C27.3556 11.4963 27.6189 12.1322 28.0878 12.601C28.5566 13.0699 29.1925 13.3333 29.8556 13.3333Z" fill="#F0F0F0"/>
</svg>
