<svg width="41" height="40" viewBox="0 0 41 40" fill="none" xmlns="http://www.w3.org/2000/svg">
<path fill-rule="evenodd" clip-rule="evenodd" d="M25.4373 9.43003C24.6759 9.42971 23.9239 9.59844 23.2356 9.92405C22.5474 10.2497 21.94 10.724 21.4573 11.3129C20.9746 11.9018 20.6287 12.5904 20.4445 13.3292C20.2604 14.068 20.2425 14.8385 20.3923 15.585C20.4438 15.8437 20.4333 16.1109 20.3615 16.3647C20.2896 16.6185 20.1586 16.8516 19.9792 17.0449C19.7997 17.2382 19.5769 17.3861 19.3292 17.4765C19.0814 17.567 18.8157 17.5973 18.5539 17.565C14.9702 17.1248 11.5918 15.6516 8.83061 13.325C8.88228 14.3284 9.23061 15.395 9.98561 16.5117L11.1173 18.185L9.25894 18.9767L8.90061 19.13C9.16728 19.435 9.48728 19.7467 9.84561 20.055C10.3246 20.465 10.8314 20.8415 11.3623 21.1817L11.3806 21.1934H11.3823L13.9623 22.7584L11.2623 24.1084C11.1289 24.175 10.9956 24.235 10.8623 24.2884C11.4428 24.7708 12.0824 25.1774 12.7656 25.4984L15.0823 26.5934L13.1423 28.2667C12.0839 29.18 11.0189 29.8617 9.63728 30.2217C11.7563 31.3504 14.1214 31.9384 16.5223 31.9334C24.5323 31.9334 30.9823 25.5417 30.9823 17.71V16.8434L31.6906 16.345C32.7973 15.5684 33.5789 14.5184 34.1389 13.3167H30.5389L30.0856 12.3667C29.6682 11.4878 29.01 10.7454 28.1875 10.2255C27.365 9.70573 26.4119 9.42988 25.4389 9.43003H25.4373ZM6.63728 21.5967C6.48 21.7768 6.36332 21.9887 6.29517 22.2179C6.22701 22.4471 6.20897 22.6882 6.24228 22.925C6.43061 24.26 7.22894 25.41 8.11228 26.2884C8.35228 26.5267 8.60894 26.755 8.87894 26.9734L8.75394 27.0067C7.95228 27.2067 6.87061 27.2484 5.06894 27.0734C4.72871 27.04 4.38644 27.112 4.08853 27.2797C3.79063 27.4474 3.55151 27.7027 3.40359 28.0109C3.25567 28.3191 3.20611 28.6654 3.26163 29.0027C3.31714 29.34 3.47505 29.6521 3.71394 29.8967C5.3819 31.6016 7.37443 32.9551 9.57398 33.8774C11.7735 34.7997 14.1355 35.2721 16.5206 35.2667C26.0423 35.2667 33.8523 27.8734 34.2939 18.5434C36.4439 16.7384 37.5189 14.2934 38.0989 12.0717C38.1634 11.8251 38.1705 11.567 38.1196 11.3173C38.0687 11.0675 37.9612 10.8328 37.8054 10.6311C37.6496 10.4294 37.4496 10.2661 37.2208 10.1538C36.992 10.0415 36.7405 9.98322 36.4856 9.98336H32.5639C31.6047 8.4939 30.2029 7.34243 28.5554 6.69075C26.908 6.03907 25.0978 5.91994 23.3792 6.3501C21.6606 6.78026 20.1199 7.73809 18.9737 9.08899C17.8276 10.4399 17.1334 12.116 16.9889 13.8817C13.9167 13.0819 11.1678 11.3497 9.12061 8.92336C8.93931 8.709 8.70679 8.54391 8.44464 8.44341C8.18249 8.34292 7.8992 8.31027 7.62106 8.34851C7.34293 8.38675 7.07896 8.49463 6.85365 8.66214C6.62835 8.82965 6.44901 9.05136 6.33228 9.30669C5.32228 11.51 5.12894 14.05 6.25561 16.6334L5.86561 16.8C5.4924 16.9591 5.19001 17.2487 5.01511 17.6148C4.84022 17.9808 4.80484 18.3981 4.91561 18.7884C5.22561 19.875 5.92228 20.835 6.63561 21.5967H6.63728Z" fill="#F0F0F0"/>
</svg>
